<svg width="256" height="256" viewBox="0 0 256 256" fill="none" xmlns="http://www.w3.org/2000/svg">
<circle cx="128" cy="128" r="128" fill="#10B981"/>
<path d="M79.875 222V192.909H87.7159V203.989H87.8295C88.1136 203.25 88.5303 202.573 89.0795 201.957C89.6288 201.332 90.3106 200.835 91.125 200.466C91.9394 200.087 92.8864 199.898 93.9659 199.898C95.4053 199.898 96.7737 200.281 98.071 201.048C99.3778 201.815 100.438 203.023 101.253 204.67C102.077 206.318 102.489 208.458 102.489 211.091C102.489 213.61 102.096 215.698 101.31 217.355C100.533 219.012 99.4915 220.248 98.1847 221.062C96.8873 221.877 95.4621 222.284 93.9091 222.284C92.8864 222.284 91.9725 222.118 91.1676 221.787C90.3722 221.446 89.6903 220.987 89.1222 220.409C88.5634 219.822 88.1326 219.159 87.8295 218.42H87.6591V222H79.875ZM87.5455 211.091C87.5455 212.152 87.6828 213.07 87.9574 213.847C88.2415 214.614 88.6392 215.21 89.1506 215.636C89.6714 216.053 90.2917 216.261 91.0114 216.261C91.7311 216.261 92.3419 216.058 92.8438 215.651C93.3551 215.234 93.7434 214.642 94.0085 213.875C94.2831 213.098 94.4205 212.17 94.4205 211.091C94.4205 210.011 94.2831 209.088 94.0085 208.321C93.7434 207.545 93.3551 206.953 92.8438 206.545C92.3419 206.129 91.7311 205.92 91.0114 205.92C90.2917 205.92 89.6714 206.129 89.1506 206.545C88.6392 206.953 88.2415 207.545 87.9574 208.321C87.6828 209.088 87.5455 210.011 87.5455 211.091ZM111.849 222.341C110.457 222.341 109.226 222.114 108.156 221.659C107.096 221.195 106.262 220.494 105.656 219.557C105.05 218.619 104.747 217.426 104.747 215.977C104.747 214.784 104.951 213.766 105.358 212.923C105.765 212.071 106.333 211.375 107.062 210.835C107.792 210.295 108.639 209.884 109.605 209.599C110.58 209.315 111.632 209.131 112.759 209.045C113.98 208.951 114.96 208.837 115.699 208.705C116.447 208.562 116.987 208.368 117.318 208.122C117.65 207.866 117.815 207.53 117.815 207.114V207.057C117.815 206.489 117.598 206.053 117.162 205.75C116.726 205.447 116.168 205.295 115.486 205.295C114.738 205.295 114.127 205.461 113.653 205.793C113.189 206.115 112.91 206.612 112.815 207.284H105.599C105.694 205.958 106.116 204.737 106.864 203.619C107.621 202.492 108.724 201.593 110.173 200.92C111.622 200.239 113.431 199.898 115.599 199.898C117.162 199.898 118.563 200.082 119.804 200.452C121.045 200.812 122.1 201.318 122.972 201.972C123.843 202.616 124.506 203.373 124.96 204.244C125.424 205.106 125.656 206.044 125.656 207.057V222H118.327V218.932H118.156C117.721 219.746 117.19 220.404 116.565 220.906C115.95 221.408 115.244 221.773 114.449 222C113.663 222.227 112.796 222.341 111.849 222.341ZM114.406 217.398C115.003 217.398 115.562 217.275 116.082 217.028C116.613 216.782 117.044 216.427 117.375 215.963C117.706 215.499 117.872 214.936 117.872 214.273V212.455C117.664 212.54 117.441 212.62 117.205 212.696C116.977 212.772 116.731 212.843 116.466 212.909C116.21 212.975 115.936 213.037 115.642 213.094C115.358 213.151 115.06 213.203 114.747 213.25C114.141 213.345 113.644 213.501 113.256 213.719C112.877 213.927 112.593 214.188 112.403 214.5C112.223 214.803 112.134 215.144 112.134 215.523C112.134 216.129 112.347 216.593 112.773 216.915C113.199 217.237 113.743 217.398 114.406 217.398ZM137.244 209.727V222H129.403V200.182H136.846V204.33H137.073C137.547 202.947 138.38 201.863 139.573 201.077C140.776 200.291 142.177 199.898 143.778 199.898C145.321 199.898 146.661 200.253 147.798 200.963C148.943 201.664 149.829 202.63 150.454 203.861C151.088 205.092 151.401 206.498 151.391 208.08V222H143.55V209.727C143.56 208.648 143.285 207.8 142.727 207.185C142.177 206.569 141.41 206.261 140.425 206.261C139.781 206.261 139.218 206.403 138.735 206.688C138.262 206.962 137.897 207.36 137.641 207.881C137.386 208.392 137.253 209.008 137.244 209.727ZM162.308 216.83L162.364 207.511H163.387L168.671 200.182H177.478L168.614 211.602H166.398L162.308 216.83ZM155.262 222V192.909H163.103V222H155.262ZM168.728 222L163.728 213.364L168.842 207.795L177.705 222H168.728Z" fill="white"/>
<path d="M29.8381 161L10.5341 95.5455H30.3494L39.2983 135.815H39.8097L50.4205 95.5455H66.017L76.6278 135.943H77.1392L86.0881 95.5455H105.903L86.5994 161H69.5966L58.4744 124.438H57.9631L46.8409 161H29.8381ZM170.934 128.273C170.934 135.56 169.518 141.707 166.684 146.714C163.85 151.7 160.025 155.482 155.21 158.06C150.395 160.616 145.025 161.895 139.102 161.895C133.136 161.895 127.746 160.606 122.93 158.028C118.136 155.428 114.322 151.636 111.488 146.65C108.676 141.643 107.27 135.517 107.27 128.273C107.27 120.986 108.676 114.849 111.488 109.864C114.322 104.857 118.136 101.075 122.93 98.5178C127.746 95.9396 133.136 94.6506 139.102 94.6506C145.025 94.6506 150.395 95.9396 155.21 98.5178C160.025 101.075 163.85 104.857 166.684 109.864C169.518 114.849 170.934 120.986 170.934 128.273ZM152.653 128.273C152.653 124.352 152.131 121.05 151.087 118.365C150.064 115.659 148.541 113.614 146.517 112.229C144.514 110.822 142.042 110.119 139.102 110.119C136.162 110.119 133.68 110.822 131.655 112.229C129.653 113.614 128.129 115.659 127.085 118.365C126.062 121.05 125.551 124.352 125.551 128.273C125.551 132.193 126.062 135.506 127.085 138.212C128.129 140.897 129.653 142.942 131.655 144.349C133.68 145.734 136.162 146.426 139.102 146.426C142.042 146.426 144.514 145.734 146.517 144.349C148.541 142.942 150.064 140.897 151.087 138.212C152.131 135.506 152.653 132.193 152.653 128.273ZM242.565 128.273C242.565 135.56 241.148 141.707 238.315 146.714C235.481 151.7 231.656 155.482 226.841 158.06C222.026 160.616 216.656 161.895 210.733 161.895C204.767 161.895 199.376 160.606 194.561 158.028C189.767 155.428 185.953 151.636 183.119 146.65C180.307 141.643 178.901 135.517 178.901 128.273C178.901 120.986 180.307 114.849 183.119 109.864C185.953 104.857 189.767 101.075 194.561 98.5178C199.376 95.9396 204.767 94.6506 210.733 94.6506C216.656 94.6506 222.026 95.9396 226.841 98.5178C231.656 101.075 235.481 104.857 238.315 109.864C241.148 114.849 242.565 120.986 242.565 128.273ZM224.284 128.273C224.284 124.352 223.762 121.05 222.718 118.365C221.695 115.659 220.172 113.614 218.148 112.229C216.145 110.822 213.673 110.119 210.733 110.119C207.793 110.119 205.31 110.822 203.286 112.229C201.283 113.614 199.76 115.659 198.716 118.365C197.693 121.05 197.182 124.352 197.182 128.273C197.182 132.193 197.693 135.506 198.716 138.212C199.76 140.897 201.283 142.942 203.286 144.349C205.31 145.734 207.793 146.426 210.733 146.426C213.673 146.426 216.145 145.734 218.148 144.349C220.172 142.942 221.695 140.897 222.718 138.212C223.762 135.506 224.284 132.193 224.284 128.273Z" fill="white"/>
</svg>
